#!OML:ASF E:/inclinewalkrobotboard/Project1/Captureday1/Session1/subject1.ASF
:FULLY-SPECIFIED
:DEGREES
251
root 0 0 0 -1.389387385254153 -1.199958732033507 -3.897039659834267
lowerback 20.024586369752132 2.2860501087231864 -0.9007344247382583
upperback 3.2471860550010305 3.071117885577742 0.39550776188505243
thorax -7.659390024071352 1.5036372674890717 0.4021361996666779
lowerneck -6.145141834308801 -5.736885049652589 -0.7346047086033947
upperneck 3.8370759653485997 -8.066695689772317 4.497006703701448
head 2.6230966687036052 -3.7402143073444387 0.9934455202251105
rclavicle 3.0843694444430427E-15 -6.869866180604306E-16
rhumerus -4.379375778336115 -19.398007217984198 -64.11048007053314
rradius 88.6369354003663
rwrist 16.831888658115627
rhand -19.08542539086328 -22.363429544542445
rfingers 7.125019999999951
rthumb 7.242220340635732 -52.31216361315505
lclavicle 7.210508185995309E-16 -1.7631372930228307E-16
lhumerus -45.75908848027334 -6.886871446467429 81.49657239708272
lradius 61.73112565966569
lwrist 10.440821999174114
lhand -14.288618477254936 -20.85442698319424
lfingers 7.125019999999881
lthumb 11.770594540708343 8.913997582845864
rfemur -24.181535119993622 3.6625580723181765 30.395418628952484
rtibia 59.585065795499354
rfoot -5.248901666907323 -5.314843519559456
rtoes 12.690941177219432
lfemur -10.728182358093429 0.9294063761060634 -16.90904457526285
ltibia 58.92864069108843
lfoot 5.839431527316474 -13.426232813606504
ltoes -5.524804479105178
252
root 0 0 0 -1.3601417200305346 -1.1583430797743988 -3.9162620007754305
lowerback 19.93403357593748 2.3775305046067388 -0.7683454760737971
upperback 2.978191440088001 3.1962547696748214 0.2700613830789501
thorax -7.90644450600399 1.561999106563115 0.1748803111278991
lowerneck -6.615852230921179 -5.813551527311585 -0.8921084545708438
upperneck 2.5994640804393434 -8.185219578195632 4.7038704765596595
head 2.269312028044858 -3.7990558173322766 1.0844108018211227
rclavicle 2.61126654297474E-15 -8.270624136131117E-16
rhumerus -4.219926262972711 -19.068315609540416 -64.05353888393465
rradius 88.75539217221322
rwrist 16.748061645083546
rhand -18.96632049046157 -22.312663133366527
rfingers 7.12501999999995
rthumb 7.3565550709173095 -52.25056546762747
lclavicle 4.849686187589025E-16 -1.0756445673149389E-16
lhumerus -45.003523303811484 -7.2952574319228445 82.37640623809172
lradius 61.78940699488799
lwrist 10.174153216748973
lhand -14.053668529414534 -21.874260335856178
lfingers 7.125019999999897
lthumb 12.00034457501409 7.8657422649925195
rfemur -23.505035313148667 4.143035136657993 30.753066060506097
rtibia 55.77799143953879
rfoot -6.805946833367209 -5.477233078650488
rtoes 13.000914958860157
lfemur -13.151993101033586 1.882237763442633 -15.574750133838595
ltibia 62.97096942621931
lfoot 3.9481093287419142 -12.28143523785241
ltoes -7.8747817296760445
253
root 0 0 0 -1.356506698990564 -1.1572506458191496 -3.9415134454365788
lowerback 19.820326193737486 2.5762361023114666 -0.48593905513166114
upperback 2.588474967216065 3.46695722893185 0.00937249866303258
thorax -8.275364804133462 1.6871713621152131 -0.2995629821678696
lowerneck -7.436462651632089 -5.916293718894132 -1.1580449224674316
upperneck 0.799716130055252 -8.378813248962643 5.108778684478276
head 1.7790465164621834 -3.8826932259100992 1.2546668420613063
rclavicle 2.5201233312086112E-15 -9.334202047708904E-16
rhumerus -0.45412808373679603 -17.66733516193237 -61.1953854950019
rradius 93.69183451406633
rwrist 13.920552651136283
rhand -18.939795546026 -22.692464027461373
rfingers 7.1250199999999495
rthumb 7.380769785124944 -52.60989234449598
lclavicle 3.8409761743276694E-17 1.2913241796691977E-17
lhumerus -44.362910831683045 -7.664388241519172 83.12408577479927
lradius 61.88288270429795
lwrist 9.965645429811174
lhand -13.848970694594017 -22.771637029168048
lfingers 7.125019999999911
lthumb 12.200371485472393 6.937312649895615
rfemur -21.80044080007172 5.132530979042848 31.42010343816324
rtibia 48.60313030862308
rfoot -9.817523358720358 -6.0806313361338455
rtoes 12.802500993353483
lfemur -16.58786160760089 2.768191695985562 -14.457874138318084
ltibia 65.26838596187044
lfoot 1.826250529747309 -10.715160770581221
ltoes -8.295932418848324
254
root 0 0 0 -1.4289518997126065 -1.2383589140717237 -3.9709621382763447
lowerback 19.595450273920868 2.831448076986045 -0.07534483900455446
upperback 2.296280728143212 3.816748435603083 -0.3264371888351456
thorax -8.476602524896323 1.8462714618775369 -0.9289349211066934
lowerneck -8.320944866536763 -5.971658068923984 -1.4626988830432845
upperneck -0.7505890361057332 -8.548076347380132 5.631670406120369
head 1.368735835317537 -3.9382223245259116 1.4694621291927006
rclavicle 2.5812157158747763E-15 -1.2148627511714408E-15
rhumerus 8.173642472023902 -14.87907185982099 -54.57527650545168
rradius 104.99767880335654
rwrist 7.389489620007556
rhand -19.009237314690782 -23.636115308891448
rfingers 7.125019999999949
rthumb 7.312770409810052 -53.516366453666635
lclavicle -5.652835376839043E-16 3.4534285936442294E-19
lhumerus -44.14425552279698 -7.830510921843141 83.4047049720107
lradius 61.987138932249024
lwrist 9.902363913427923
lhand -13.7545358344814 -23.18479415994223
lfingers 7.1250199999999175
lthumb 12.292944664837522 6.4999695174230965
rfemur -17.860266906081904 6.671077235228671 32.646741425574945
rtibia 39.43433682248428
rfoot -13.646219247921302 -7.008430621660026
rtoes 11.693122862071455
lfemur -19.336270096427214 3.310423765446983 -13.790363615612739
ltibia 66.01069260257869
lfoot 0.21626458186084108 -9.384089560456829
ltoes -7.896051275729469
255
root 0 0 0 -1.4451553818556784 -1.296797896512109 -3.9934302177353973
lowerback 19.451934144278223 2.9824985159518658 0.14257643616743143
upperback 2.237480419032574 4.025656813816848 -0.49416310749439396
thorax -8.467743275663594 1.9420493467472113 -1.2552368770365252
lowerneck -8.660503555391076 -5.996164673288237 -1.6163958028200625
upperneck -1.0661555133472387 -8.643283660904661 5.932171629393965
head 1.3040352368635952 -3.9635421517257834 1.5856571191116955
rclavicle 1.9593477402367764E-15 -1.666680628881415E-15
rhumerus 20.54768021973735 -10.939794192777246 -44.816478315416944
rradius 121.7344420515368
rwrist -2.7607940186011692
rhand -19.122277555869893 -25.342603594205084
rfingers 7.1250199999999495
rthumb 7.2057785391000175 -55.16822305797641
lclavicle -1.1027343095592771E-15 -1.41826888481792E-16
lhumerus -44.493280941200474 -7.698635465039571 83.04265770761997
lradius 62.070238854588766
lwrist 10.014017431063072
lhand -13.816196877791908 -22.940613237811263
lfingers 7.125019999999914
lthumb 12.234176530565916 6.736710887786073
rfemur -12.233747779338536 8.245473344016078 34.21271325858426
rtibia 31.75234634487949
rfoot -17.00909025095516 -7.870282928174273
rtoes 9.772016988265221
lfemur -21.02727117243161 3.4796925730679082 -13.591824560056816
ltibia 65.45296773470396
lfoot -0.8267667352101604 -8.403419792298443
ltoes -7.089039710219119
256
root 0 0 0 -1.4503655099730435 -1.3452274724543702 -4.004994075609751
lowerback 19.423263924470504 3.034141584581376 0.19212686834494552
upperback 2.239565178468167 4.097734111020878 -0.5304842610505722
thorax -8.453361678031197 1.975933071847881 -1.3317785992441131
lowerneck -8.694010354252987 -5.999378012798541 -1.6362352326105358
upperneck -0.9068746373786691 -8.669773298361665 6.010054045231518
head 1.3674353085510331 -3.9674440053401137 1.6107342752444653
rclavicle 3.9998430930675585E-16 -1.6221672511454122E-15
rhumerus 30.516950888177767 -7.439928119246791 -36.2777387110696
rradius 136.81403693822583
rwrist -12.823734397186131
rhand -19.223798514370678 -27.546970903385784
rfingers 7.125019999999952
rthumb 7.112456201748035 -57.33121453846876
lclavicle -1.4910067908193247E-15 -1.725191012329123E-16
lhumerus -45.432549044030715 -7.263803725902466 82.05743424648584
lradius 62.092779094374094
lwrist 10.293618281741919
lhand -14.024581620838507 -21.95489264444786
lfingers 7.1250199999999
lthumb 12.033270203798985 7.725202020799271
rfemur -7.385820431163441 8.935759341351876 35.15651739041516
rtibia 28.06655642624093
rfoot -19.22522480159105 -8.109655874693491
rtoes 8.28999550731406
lfemur -22.230325109677246 3.4144079137053542 -13.623034275648317
ltibia 63.94086085620866
lfoot -1.5056861047253847 -7.608447184079943
ltoes -5.910502641978923
257
root 0 0 0 -1.462361038343362 -1.3993500876308083 -4.00737811165833
lowerback 19.477330101127716 3.0477851502464866 0.1963249350481644
upperback 2.2432829554850695 4.1171479761018315 -0.5367900532955101
thorax -8.482484329816945 1.9846861431718859 -1.3449248560739595
lowerneck -8.680571448785855 -5.990433402898572 -1.609702155518909
upperneck -0.8810728389167402 -8.660442678665369 5.995931976969185
head 1.383107209919749 -3.9617667846275264 1.6025643781653147
rclavicle -5.1401789787608E-16 -9.29521823379816E-16
rhumerus 34.80335230887101 -5.420935184253127 -31.87502009646735
rradius 144.98400162145313
rwrist -19.173731091544852
rhand -19.27182325187035 -29.308341842768588
rfingers 7.125019999999954
rthumb 7.066963980066504 -59.08990629229771
lclavicle -1.7435858372030226E-15 1.3267003672622817E-17
lhumerus -46.480595991104636 -6.747484557269493 80.94833566972981
lradius 62.068071979021354
lwrist 10.583571808481432
lhand -14.263697793656075 -20.822477944093137
lfingers 7.125019999999883
lthumb 11.804231908745972 8.866813359761116
rfemur -3.6147761570578667 9.09054369938302 35.571720151043664
rtibia 26.61320532706872
rfoot -20.618098353905104 -8.01653338343008
rtoes 7.264984949030398
lfemur -23.279497943733833 3.2222510251712575 -13.805164822123524
ltibia 61.750061484083616
lfoot -1.9943946805313537 -6.8922884962745465
ltoes -4.2977192427316595
258
root 0 0 0 -1.4725362449326913 -1.4519341395317458 -4.0050083367659495
lowerback 19.567521746605536 3.048143727815612 0.18934113622197823
upperback 2.2486231146113003 4.118106829863175 -0.5372400640131567
thorax -8.529928630882253 1.984323448914683 -1.343604253159278
lowerneck -8.6630900291292 -5.97724250648227 -1.571182128167202
upperneck -0.9535127267404828 -8.637948109524277 5.950130020673214
head 1.3659853397072155 -3.9530123470853624 1.5840512096654162
rclavicle -8.139283180014517E-16 -1.7397654110703166E-16
rhumerus 36.07969191337699 -4.460119393224867 -30.121377397235527
rradius 148.44516886368064
rwrist -22.38076425538292
rhand -19.290602743696805 -30.30751696427983
rfingers 7.125019999999954
rthumb 7.047381825905475 -60.10163259005493
lclavicle -1.800526812149056E-15 3.377768848049859E-16
lhumerus -47.06730781669601 -6.418506148000933 80.27719895687787
lradius 62.03956400362142
lwrist 10.726712557135054
lhand -14.414332494557605 -20.235462575001833
lfingers 7.125019999999873
lthumb 11.662349881882315 9.467810536738192
rfemur -1.3796558115856992 9.081507199182811 35.74565720986748
rtibia 26.196511949086087
rfoot -21.366392666896502 -7.917842011273431
rtoes 6.560112460216779
lfemur -24.32821938981957 2.9351717648104754 -14.19500153362064
ltibia 58.83633022622523
lfoot -2.413251458464785 -6.176459503081607
ltoes -2.0069674807672726
